<svg width="160" height="33" viewBox="0 0 160 33" fill="none" xmlns="http://www.w3.org/2000/svg">
<g clip-path="url(#clip0_2005_56)">
<path d="M159.716 24.7494V28.7089H156.395C152.851 28.5975 150.957 26.6835 150.957 23.0886V14.0456H148.638V10.5722H150.957V6.68355H155.858V10.5316H159.605V13.9949H155.858V22.6025C155.858 23.7671 156.091 24.6987 157.884 24.6987L159.716 24.7494Z" fill="white"/>
<path d="M129.104 19.6759V19.4127C129.051 18.248 129.228 17.0842 129.626 15.9882C130.023 14.8922 130.633 13.8854 131.421 13.0256C132.208 12.1657 133.157 11.4697 134.214 10.9775C135.271 10.4852 136.415 10.2064 137.58 10.157C137.813 10.157 138.056 10.157 138.289 10.157C142.916 10.157 146.977 12.8506 146.977 19.2709V20.638H134.116C134.248 23.5949 135.848 25.2658 138.542 25.2658C140.861 25.2658 141.944 24.2532 142.258 22.7747H146.886C146.319 26.6329 143.241 28.7797 138.37 28.7797C133.023 28.7392 129.104 25.357 129.104 19.6759ZM142.157 17.5392C141.985 14.8456 140.628 13.5494 138.268 13.5494C135.909 13.5494 134.552 15.0076 134.218 17.5392H142.157Z" fill="white"/>
<path d="M109.094 19.6759V19.4127C109.041 18.2496 109.217 17.0875 109.614 15.9927C110.01 14.898 110.618 13.892 111.403 13.0325C112.189 12.1729 113.136 11.4765 114.19 10.9831C115.245 10.4897 116.386 10.209 117.549 10.157C117.782 10.157 118.025 10.157 118.258 10.157C122.886 10.157 126.957 12.8506 126.957 19.2709V20.638H114.106C114.238 23.5949 115.838 25.2658 118.532 25.2658C120.851 25.2658 121.934 24.2532 122.248 22.7747H126.876C126.299 26.6329 123.22 28.7797 118.349 28.7797C113.013 28.7392 109.094 25.357 109.094 19.6759ZM122.147 17.5392C121.975 14.8456 120.618 13.5494 118.258 13.5494C115.899 13.5494 114.582 15.0481 114.208 17.5291L122.147 17.5392Z" fill="white"/>
<path d="M81.0127 10.5316H86.1975L89.3671 22.5418L92.8405 10.5316H96.8911L100.03 22.5418L103.372 10.5316H108.122L102.491 28.3747H97.6304L94.5924 17.1747L91.3418 28.3747H86.4203L81.0127 10.5316Z" fill="white"/>
<path d="M64.5367 22.7646H69.1646C69.3772 24.3747 70.1772 25.2962 72.3038 25.2962C74.2076 25.2962 75.0886 24.5772 75.0886 23.3519C75.0886 22.1266 74.076 21.6101 71.4836 21.2456C66.7342 20.5266 64.9013 19.1595 64.9013 15.6759C64.9013 11.9595 68.3038 10.1165 71.9899 10.1165C75.9494 10.1165 78.9367 11.5544 79.362 15.6557H74.7949C74.7658 15.3386 74.6741 15.0305 74.5252 14.7491C74.3763 14.4676 74.1731 14.2185 73.9273 14.0161C73.6816 13.8136 73.3981 13.6619 73.0934 13.5696C72.7887 13.4774 72.4687 13.4464 72.1519 13.4785H72C70.4 13.4785 69.4684 14.2278 69.4684 15.3215C69.4684 16.4152 70.3291 16.8911 72.9418 17.2658C77.3772 17.9342 79.8582 19.0582 79.8582 22.8759C79.8582 26.6937 77.0532 28.7392 72.3544 28.7392C67.6557 28.7392 64.6684 26.6228 64.5367 22.7646Z" fill="white"/>
<path d="M44.8709 10.5316H49.7721V13.357C50.3246 12.3199 51.1631 11.4633 52.1881 10.8889C53.2131 10.3144 54.3815 10.0464 55.5544 10.1165C59.0278 10.1165 61.5494 12.2329 61.5494 17.0633V28.4152H56.7089V17.7722C56.7089 15.3519 55.7671 14.1975 53.5797 14.1975C53.1174 14.1572 52.6517 14.2087 52.2093 14.3489C51.767 14.4891 51.3566 14.7153 51.0019 15.0145C50.6472 15.3137 50.355 15.68 50.1423 16.0925C49.9295 16.5049 49.8003 16.9552 49.762 17.4177C49.7367 17.633 49.7367 17.8505 49.762 18.0658V28.3747H44.8709V10.5316Z" fill="white"/>
<path d="M35.4127 6.04557C35.3949 5.55689 35.5225 5.07393 35.7794 4.65784C36.0363 4.24174 36.4109 3.91123 36.8557 3.70813C37.3005 3.50503 37.7956 3.43848 38.2783 3.51692C38.7609 3.59535 39.2095 3.81524 39.5671 4.14874C39.9247 4.48224 40.1753 4.91436 40.2872 5.39038C40.3991 5.8664 40.3673 6.36493 40.1957 6.82283C40.0241 7.28074 39.7205 7.67743 39.3233 7.9627C38.9262 8.24796 38.4533 8.40896 37.9646 8.42532H37.8734C37.5701 8.44452 37.266 8.40364 36.9785 8.30502C36.691 8.20641 36.4258 8.05201 36.1981 7.85067C35.9704 7.64933 35.7847 7.40502 35.6517 7.13175C35.5186 6.85848 35.4409 6.56163 35.4228 6.25823C35.4144 6.18767 35.411 6.11661 35.4127 6.04557ZM35.4127 10.5316H40.3646V28.3747H35.4329L35.4127 10.5316Z" fill="white"/>
<path d="M16.7494 3.98988H32.4051V8.31393H22.2785V14.7646H30.2987V18.9266H22.2684V28.3747H16.7494V3.98988Z" fill="white"/>
<path d="M7.30127 11.9696C7.30127 13.4987 7.30127 15.362 5.19494 16.1215C7.3519 16.8608 7.30127 18.4304 7.30127 20.0709V26.1468C7.30127 27.3013 7.76709 28 8.59747 28.1722C8.77993 28.2337 8.97216 28.2612 9.16456 28.2532H11.1899V32.3038H7.8481C4.28355 32.3038 2.31899 30.2785 2.31899 26.5215V19.3316C2.29371 18.9625 2.13095 18.6163 1.86286 18.3613C1.59476 18.1064 1.24081 17.9612 0.870886 17.9544H0V14.4H0.870886C1.24819 14.395 1.60909 14.245 1.87872 13.981C2.14835 13.717 2.30601 13.3594 2.31899 12.9823V5.69114C2.31899 1.99494 4.24304 0 7.8481 0H11.2203V3.98987H9.19494C9.00231 3.99043 8.81095 4.02118 8.62785 4.08101C7.79747 4.29367 7.33165 4.98228 7.33165 6.10633L7.30127 11.9696Z" fill="white"/>
</g>
<defs>
<clipPath id="clip0_2005_56">
<rect width="160" height="32.4051" fill="white"/>
</clipPath>
</defs>
</svg>
