<svg width="122" height="25" viewBox="0 0 122 25" fill="none" xmlns="http://www.w3.org/2000/svg">
<path d="M121.784 18.8714V21.8905H119.251C116.549 21.8056 115.105 20.3462 115.105 17.6051V10.7097H113.336V8.06125H115.105V5.09619H118.842V8.03037H121.699V10.6711H118.842V17.2344C118.842 18.1224 119.019 18.8328 120.386 18.8328L121.784 18.8714Z" fill="white"/>
<path d="M98.4417 15.0029V14.8021C98.4012 13.914 98.5365 13.0267 98.8396 12.191C99.1428 11.3552 99.6079 10.5876 100.208 9.93193C100.809 9.2763 101.533 8.74561 102.338 8.37027C103.144 7.99493 104.016 7.78232 104.905 7.74463C105.082 7.74463 105.267 7.74463 105.445 7.74463C108.974 7.74463 112.07 9.79855 112.07 14.694V15.7364H102.264C102.364 17.9911 103.584 19.2651 105.638 19.2651C107.406 19.2651 108.233 18.493 108.472 17.3656H112.001C111.568 20.3075 109.221 21.9445 105.507 21.9445C101.43 21.9136 98.4417 19.3346 98.4417 15.0029ZM108.395 13.3736C108.263 11.3197 107.229 10.3313 105.43 10.3313C103.631 10.3313 102.596 11.4432 102.341 13.3736H108.395Z" fill="white"/>
<path d="M83.1839 15.0029V14.8021C83.1435 13.9153 83.2782 13.0291 83.5804 12.1944C83.8826 11.3596 84.3463 10.5926 84.9451 9.9372C85.5439 9.28177 86.2659 8.75078 87.07 8.37456C87.8742 7.99835 88.7445 7.78429 89.6314 7.74463C89.809 7.74463 89.9943 7.74463 90.1719 7.74463C93.7006 7.74463 96.8047 9.79855 96.8047 14.694V15.7364H87.0061C87.1065 17.9911 88.3265 19.2651 90.3804 19.2651C92.1486 19.2651 92.9748 18.493 93.2142 17.3656H96.7429C96.3028 20.3075 93.9554 21.9445 90.2414 21.9445C86.1722 21.9136 83.1839 19.3346 83.1839 15.0029ZM93.137 13.3736C93.0057 11.3197 91.971 10.3313 90.1719 10.3313C88.3728 10.3313 87.369 11.4741 87.0833 13.3659L93.137 13.3736Z" fill="white"/>
<path d="M61.7722 8.0304H65.7256L68.1424 17.1881L70.7909 8.0304H73.8795L76.2732 17.1881L78.8213 8.0304H82.4427L78.1495 21.6357H74.4432L72.1267 13.0957L69.6481 21.6357H65.8954L61.7722 8.0304Z" fill="white"/>
<path d="M49.2092 17.3579H52.738C52.9001 18.5856 53.5101 19.2883 55.1316 19.2883C56.5833 19.2883 57.2551 18.7401 57.2551 17.8058C57.2551 16.8715 56.4829 16.4777 54.5062 16.1997C50.8848 15.6515 49.4872 14.6091 49.4872 11.9529C49.4872 9.11906 52.0816 7.71375 54.8923 7.71375C57.9114 7.71375 60.1892 8.8102 60.5135 11.9374H57.0311C57.0089 11.6957 56.939 11.4607 56.8254 11.2461C56.7119 11.0315 56.557 10.8416 56.3696 10.6872C56.1822 10.5328 55.9661 10.4171 55.7337 10.3468C55.5013 10.2764 55.2574 10.2528 55.0158 10.2773H54.9C53.68 10.2773 52.9696 10.8487 52.9696 11.6826C52.9696 12.5165 53.6259 12.8794 55.6181 13.1651C59.0001 13.6748 60.8919 14.5318 60.8919 17.4429C60.8919 20.3539 58.753 21.9136 55.1702 21.9136C51.5875 21.9136 49.3096 20.2998 49.2092 17.3579Z" fill="white"/>
<path d="M34.2141 8.03036H37.9513V10.1847C38.3725 9.39394 39.0119 8.74076 39.7935 8.30275C40.575 7.86475 41.4659 7.66033 42.3603 7.71378C45.0087 7.71378 46.9314 9.32758 46.9314 13.0107V21.6666H43.2405V13.5513C43.2405 11.7058 42.5224 10.8256 40.8546 10.8256C40.502 10.7949 40.1469 10.8341 39.8096 10.941C39.4723 11.0479 39.1594 11.2204 38.889 11.4485C38.6185 11.6767 38.3957 11.956 38.2335 12.2705C38.0712 12.5849 37.9727 12.9284 37.9435 13.281C37.9242 13.4452 37.9242 13.611 37.9435 13.7752V21.6357H34.2141V8.03036Z" fill="white"/>
<path d="M27.0022 4.60972C26.9886 4.2371 27.0859 3.86885 27.2818 3.55157C27.4777 3.2343 27.7633 2.98228 28.1025 2.82742C28.4416 2.67256 28.8191 2.62182 29.1872 2.68162C29.5552 2.74143 29.8972 2.90909 30.1699 3.16339C30.4426 3.41768 30.6337 3.74717 30.719 4.11014C30.8043 4.4731 30.7801 4.85323 30.6492 5.20238C30.5184 5.55153 30.2869 5.85401 29.9841 6.07153C29.6812 6.28904 29.3206 6.4118 28.948 6.42428H28.8785C28.6472 6.43891 28.4153 6.40774 28.1961 6.33255C27.9769 6.25736 27.7747 6.13963 27.601 5.98611C27.4274 5.83258 27.2858 5.6463 27.1844 5.43793C27.083 5.22956 27.0236 5.00321 27.0099 4.77187C27.0035 4.71807 27.0009 4.66388 27.0022 4.60972ZM27.0022 8.03035H30.778V21.6357H27.0176L27.0022 8.03035Z" fill="white"/>
<path d="M12.7714 3.04224H24.7089V6.33932H16.9873V11.2579H23.1028V14.4315H16.9796V21.6357H12.7714V3.04224Z" fill="white"/>
</svg>
